<svg width="17" height="13" viewBox="0 0 17 13" fill="none" xmlns="http://www.w3.org/2000/svg">
<path d="M9 11C9 10.2704 8.89654 9.54803 8.69552 8.87399C8.4945 8.19996 8.19986 7.58752 7.82843 7.07164C7.45699 6.55576 7.01604 6.14654 6.53073 5.86735C6.04543 5.58816 5.52529 5.44446 5 5.44446C4.47471 5.44446 3.95457 5.58816 3.46927 5.86735C2.98396 6.14654 2.54301 6.55576 2.17157 7.07164C1.80014 7.58752 1.5055 8.19996 1.30448 8.87399C1.10346 9.54803 1 10.2704 1 11L5 11H9Z" fill="#ffffff" stroke="#ffffff"/>
<path d="M7 3.77778C7 5.08662 6.05632 6.05556 5 6.05556C3.94368 6.05556 3 5.08662 3 3.77778C3 2.46894 3.94368 1.5 5 1.5C6.05632 1.5 7 2.46894 7 3.77778Z" fill="#ffffff" stroke="#ffffff"/>
<path d="M16 12C16 11.1246 15.8707 10.2577 15.6194 9.44882C15.3681 8.63998 14.9998 7.90505 14.5355 7.286C14.0712 6.66694 13.52 6.17588 12.9134 5.84084C12.3068 5.50581 11.6566 5.33337 11 5.33337C10.3434 5.33337 9.69321 5.50581 9.08658 5.84084C8.47995 6.17588 7.92876 6.66694 7.46447 7.286C7.00017 7.90505 6.63188 8.63998 6.3806 9.44882C6.12933 10.2577 6 11.1246 6 12L11 12H16Z" fill="#ffffff" stroke="#fffffff"/>
<path d="M13.625 3.33333C13.625 4.92903 12.4198 6.16667 11 6.16667C9.58016 6.16667 8.375 4.92903 8.375 3.33333C8.375 1.73764 9.58016 0.5 11 0.5C12.4198 0.5 13.625 1.73764 13.625 3.33333Z" fill="#ffffff" stroke="#ffffff"/>
</svg>
