<svg width="14" height="14" viewBox="0 0 14 14" fill="none" xmlns="http://www.w3.org/2000/svg">
<path d="M13 13.0001C13 12.0516 12.8448 11.1125 12.5433 10.2362C12.2417 9.35999 11.7998 8.56382 11.2426 7.89317C10.6855 7.22253 10.0241 6.69054 9.2961 6.32759C8.56815 5.96464 7.78793 5.77783 7 5.77783C6.21207 5.77783 5.43185 5.96464 4.7039 6.32759C3.97595 6.69054 3.31451 7.22253 2.75736 7.89317C2.20021 8.56382 1.75825 9.35999 1.45672 10.2362C1.15519 11.1125 1 12.0516 1 13.0001L7 13.0001H13Z" fill="white" stroke="black"/>
<path d="M10.25 3.61111C10.25 5.31171 8.81288 6.72222 7 6.72222C5.18712 6.72222 3.75 5.31171 3.75 3.61111C3.75 1.91051 5.18712 0.5 7 0.5C8.81288 0.5 10.25 1.91051 10.25 3.61111Z" fill="white" stroke="black"/>
</svg>
